<svg width="22" height="24" viewBox="0 0 22 24" fill="none" xmlns="http://www.w3.org/2000/svg">
<path d="M12.8654 2.27771C15.7616 3.1235 18 5.94082 18 10C18 12.6246 18.5317 14.1024 19.5154 15.1769C19.6823 15.3592 20.1363 15.7781 20.437 16.0555C20.5757 16.1834 20.6817 16.2812 20.712 16.3119L21 16.604V20.0141H14.8743C14.6241 20.9989 14.0075 21.8614 13.0878 22.4226C11.8059 23.2049 10.1941 23.2049 8.9122 22.4226C7.87009 21.7867 7.29384 21.0761 7.08798 20.0141H1V16.604L1.28796 16.3119C1.32138 16.2783 1.43204 16.1765 1.57468 16.0453C1.87632 15.7678 2.32161 15.3582 2.48596 15.1793C3.46898 14.1098 4 12.6339 4 10C4 5.92919 6.23535 3.11803 9.13531 2.27592C9.24021 2.00525 9.40572 1.75364 9.63051 1.54243C10.4003 0.81919 11.5997 0.81919 12.3695 1.54243C12.5948 1.7541 12.7605 2.00636 12.8654 2.27771Z" fill="#999999" stroke="#999999"/>
</svg>
