<svg width="22" height="22" viewBox="0 0 22 22" fill="none" xmlns="http://www.w3.org/2000/svg">
<path fill-rule="evenodd" clip-rule="evenodd" d="M14.9548 14.0757C14.9826 14.1509 15.0609 14.3574 15.137 14.5579C15.2043 14.7353 15.2699 14.9081 15.2971 14.9811C15.4872 15.4914 15.626 15.9026 15.7382 16.3099C15.9079 16.9254 16 17.4799 16 18C16 19.472 15.0919 20.3863 13.7483 20.7775C13.1423 20.954 12.6148 21.0001 12.0077 21H11.5205L11.2203 20.6261C10.8811 20.2038 10.215 19.4426 9.44701 18.565L9.44698 18.565C8.03058 16.9464 6.26776 14.9321 5.57086 13.9173C5.38997 13.9711 5.19836 14 5 14H3C1.89543 14 1 13.1046 1 12V2.99999C1 1.89542 1.89543 0.999992 3 0.999992H5C5.68686 0.999992 6.29284 1.34623 6.65294 1.87369C6.95642 1.67736 7.29505 1.51351 7.66312 1.38181C8.50544 1.08044 9.34085 0.987902 9.99893 0.999704C10.0231 1.00022 17 0.999992 17 0.999992C19.7551 0.999992 21 5.05642 21 11C21 12.6825 19.8696 14 18 14H14.927L14.9548 14.0757Z" fill="#999999"/>
<path d="M15.137 14.5579L14.6695 14.7353L14.6695 14.7353L15.137 14.5579ZM14.9548 14.0757L14.4854 14.2481L14.4858 14.2491L14.9548 14.0757ZM15.2971 14.9811L14.8285 15.1556L14.8285 15.1556L15.2971 14.9811ZM15.7382 16.3099L15.2562 16.4427L15.2562 16.4427L15.7382 16.3099ZM13.7483 20.7775L13.6085 20.2974L13.6085 20.2974L13.7483 20.7775ZM12.0077 21L12.0078 20.5H12.0077V21ZM11.5205 21L11.1306 21.3131L11.2807 21.5H11.5205V21ZM11.2203 20.6261L10.8304 20.9392L10.8304 20.9392L11.2203 20.6261ZM9.44701 18.565L9.06279 18.8852L9.07074 18.8943L9.44701 18.565ZM9.44698 18.565L9.8312 18.2448L9.82325 18.2357L9.44698 18.565ZM5.57086 13.9173L5.98302 13.6343L5.77708 13.3344L5.42838 13.4381L5.57086 13.9173ZM6.65294 1.87369L6.24 2.15561L6.51501 2.55844L6.92453 2.2935L6.65294 1.87369ZM7.66312 1.38181L7.49469 0.911037L7.49469 0.911037L7.66312 1.38181ZM9.99893 0.999704L10.0095 0.499814L10.0079 0.499785L9.99893 0.999704ZM17 0.999992L17 0.499992L17 0.499992L17 0.999992ZM14.927 14V13.5H14.2107L14.4576 14.1724L14.927 14ZM15.6045 14.3805C15.5278 14.1785 15.4506 13.9749 15.4237 13.9023L14.4858 14.2491C14.5146 14.3269 14.594 14.5363 14.6695 14.7353L15.6045 14.3805ZM15.7656 14.8065C15.7377 14.7317 15.6714 14.557 15.6045 14.3805L14.6695 14.7353C14.7372 14.9137 14.802 15.0845 14.8285 15.1556L15.7656 14.8065ZM16.2202 16.177C16.1027 15.7505 15.9586 15.3244 15.7656 14.8065L14.8285 15.1556C15.0159 15.6584 15.1492 16.0547 15.2562 16.4427L16.2202 16.177ZM16.5 18C16.5 17.4215 16.3976 16.8204 16.2202 16.177L15.2562 16.4427C15.4182 17.0303 15.5 17.5383 15.5 18H16.5ZM13.8881 21.2576C14.6288 21.0419 15.2849 20.6718 15.7578 20.1192C16.2361 19.5604 16.5 18.8461 16.5 18H15.5C15.5 18.6259 15.3098 19.1048 14.9981 19.4689C14.6811 19.8393 14.2114 20.1219 13.6085 20.2974L13.8881 21.2576ZM12.0076 21.5C12.6448 21.5001 13.2226 21.4514 13.8881 21.2576L13.6085 20.2974C13.062 20.4566 12.5848 20.5001 12.0078 20.5L12.0076 21.5ZM11.5205 21.5H12.0077V20.5H11.5205V21.5ZM10.8304 20.9392L11.1306 21.3131L11.9104 20.6869L11.6101 20.3131L10.8304 20.9392ZM9.07074 18.8943C9.843 19.7767 10.4997 20.5274 10.8304 20.9392L11.6101 20.3131C11.2625 19.8802 10.587 19.1084 9.82327 18.2357L9.07074 18.8943ZM9.06287 18.8851L9.0629 18.8851L9.83112 18.2449L9.83109 18.2449L9.06287 18.8851ZM5.1587 14.2004C5.87684 15.2461 7.66659 17.2898 9.07071 18.8942L9.82325 18.2357C8.39457 16.6031 6.65867 14.6181 5.98302 13.6343L5.1587 14.2004ZM5 14.5C5.24711 14.5 5.4867 14.464 5.71335 14.3966L5.42838 13.4381C5.29324 13.4782 5.1496 13.5 5 13.5V14.5ZM3 14.5H5V13.5H3V14.5ZM0.5 12C0.5 13.3807 1.61929 14.5 3 14.5V13.5C2.17157 13.5 1.5 12.8284 1.5 12H0.5ZM0.5 2.99999V12H1.5V2.99999H0.5ZM3 0.499992C1.61929 0.499992 0.5 1.61928 0.5 2.99999H1.5C1.5 2.17156 2.17157 1.49999 3 1.49999V0.499992ZM5 0.499992H3V1.49999H5V0.499992ZM7.06588 1.59177C6.61661 0.933689 5.85902 0.499992 5 0.499992V1.49999C5.51469 1.49999 5.96907 1.75877 6.24 2.15561L7.06588 1.59177ZM7.49469 0.911037C7.09453 1.05421 6.72064 1.23438 6.38135 1.45389L6.92453 2.2935C7.1922 2.12034 7.49556 1.9728 7.83156 1.85259L7.49469 0.911037ZM10.0079 0.499785C9.29944 0.48708 8.40264 0.586182 7.49469 0.911037L7.83156 1.85259C8.60825 1.5747 9.38225 1.48873 9.98996 1.49962L10.0079 0.499785ZM17 0.999992C17 0.499992 17 0.499992 16.9999 0.499992C16.9999 0.499992 16.9998 0.499992 16.9997 0.499992C16.9995 0.499992 16.9991 0.499992 16.9987 0.499992C16.9979 0.499992 16.9966 0.499992 16.9949 0.499992C16.9916 0.499992 16.9866 0.499992 16.98 0.499992C16.9668 0.499993 16.9472 0.499993 16.9216 0.499994C16.8705 0.499996 16.7956 0.499998 16.7002 0.5C16.5093 0.500006 16.2367 0.500012 15.9095 0.500019C15.255 0.500032 14.3822 0.500044 13.5085 0.50004C12.6349 0.500036 11.7606 0.500016 11.1031 0.499966C10.4388 0.499914 10.0085 0.499796 10.0095 0.499816L9.98835 1.49959C10.0075 1.5 11.7683 1.50003 13.5085 1.50004C14.3822 1.50004 15.255 1.50003 15.9095 1.50002C16.2367 1.50001 16.5094 1.50001 16.7002 1.5C16.7956 1.5 16.8705 1.5 16.9217 1.49999C16.9472 1.49999 16.9668 1.49999 16.98 1.49999C16.9866 1.49999 16.9916 1.49999 16.995 1.49999C16.9966 1.49999 16.9979 1.49999 16.9987 1.49999C16.9992 1.49999 16.9995 1.49999 16.9997 1.49999C16.9998 1.49999 16.9999 1.49999 16.9999 1.49999C17 1.49999 17 1.49999 17 0.999992ZM21.5 11C21.5 8.00531 21.1879 5.43571 20.5016 3.59636C19.819 1.76682 18.6925 0.499992 17 0.499992V1.49999C18.0627 1.49999 18.9362 2.26138 19.5647 3.94595C20.1896 5.62071 20.5 8.05111 20.5 11H21.5ZM18 14.5C19.0579 14.5 19.9429 14.1241 20.5624 13.4766C21.1786 12.8325 21.5 11.9534 21.5 11H20.5C20.5 11.7291 20.2562 12.35 19.8398 12.7853C19.4267 13.2171 18.8117 13.5 18 13.5V14.5ZM14.927 14.5H18V13.5H14.927V14.5ZM15.4241 13.9033L15.3963 13.8276L14.4576 14.1724L14.4854 14.2481L15.4241 13.9033Z" fill="#999999"/>
</svg>
