<svg width="22" height="22" viewBox="0 0 22 22" fill="none" xmlns="http://www.w3.org/2000/svg">
<path d="M18 8C19.8696 8 21 9.31752 21 11C21 16.9436 19.7551 21 17 21L10.0344 20.9994C9.34085 21.0121 8.50544 20.9196 7.66312 20.6182C7.29522 20.4865 6.95674 20.3228 6.65337 20.1266C6.29331 20.6544 5.68712 21.0009 5 21.0009H3C1.89543 21.0009 1 20.1055 1 19.0009V10.0009C1 8.89633 1.89543 8.0009 3 8.0009H5C5.19817 8.0009 5.38961 8.02972 5.57035 8.0834C6.2669 7.0689 8.03029 5.05389 9.44703 3.43497C10.215 2.55741 10.8811 1.79624 11.2203 1.37388L11.5205 1H12C12.6148 0.999909 13.1423 1.04603 13.7483 1.22249C15.0919 1.61372 16 2.52799 16 4C16 4.52011 15.9079 5.07463 15.7382 5.69013C15.626 6.09736 15.4872 6.50856 15.2971 7.01891C15.2701 7.09139 15.2052 7.26229 15.1384 7.43845L15.137 7.44212C15.0609 7.64263 14.9826 7.8491 14.9548 7.92427L14.927 8H18Z" fill="#999999" stroke="#999999"/>
</svg>
