<svg width="23" height="22" viewBox="0 0 23 22" fill="none" xmlns="http://www.w3.org/2000/svg">
<path fill-rule="evenodd" clip-rule="evenodd" d="M11 7.02299V1.7962L21.5186 11L11 20.2037V14.8718C7.69021 14.5189 4.95393 15.4603 2.70711 17.7071L1 19.4142V17C1 10.7344 4.45134 7.33138 11 7.02299Z" fill="#999999"/>
<path d="M11 1.7962L11.3293 1.41992L10.5 0.69432V1.7962H11ZM11 7.02299L11.0235 7.52244L11.5 7.5V7.02299H11ZM21.5186 11L21.8478 11.3763L22.2779 11L21.8478 10.6237L21.5186 11ZM11 20.2037H10.5V21.3056L11.3293 20.58L11 20.2037ZM11 14.8718H11.5V14.4223L11.053 14.3746L11 14.8718ZM2.70711 17.7071L3.06066 18.0606L3.06066 18.0606L2.70711 17.7071ZM1 19.4142H0.5V20.6213L1.35355 19.7677L1 19.4142ZM10.5 1.7962V7.02299H11.5V1.7962H10.5ZM21.8478 10.6237L11.3293 1.41992L10.6707 2.17249L21.1893 11.3763L21.8478 10.6237ZM11.3293 20.58L21.8478 11.3763L21.1893 10.6237L10.6707 19.8275L11.3293 20.58ZM10.5 14.8718V20.2037H11.5V14.8718H10.5ZM3.06066 18.0606C5.19562 15.9257 7.78027 15.0313 10.947 15.369L11.053 14.3746C7.60014 14.0065 4.71224 14.9948 2.35355 17.3535L3.06066 18.0606ZM1.35355 19.7677L3.06066 18.0606L2.35355 17.3535L0.646447 19.0606L1.35355 19.7677ZM0.5 17V19.4142H1.5V17H0.5ZM10.9765 6.52355C7.62491 6.68138 4.98926 7.63497 3.19164 9.42306C1.38992 11.2152 0.5 13.7759 0.5 17H1.5C1.5 13.9585 2.33575 11.6849 3.89686 10.132C5.46208 8.57512 7.82642 7.673 11.0235 7.52244L10.9765 6.52355Z" fill="#999999"/>
</svg>
